<svg id="Capa_1" data-name="Capa 1" xmlns="http://www.w3.org/2000/svg" viewBox="0 0 1000 1000"><title>Mesa de trabajo 1</title><path d="M460.31,208.2c-11.64,9.4-22.6,18.47-33.87,27.14-1.5,1.15-4.63.59-6.94.33-24.37-2.79-48.66-6.9-73.11-8.22-26.39-1.42-52.93,0-79.41-.36-7.61-.09-11,1.55-10.93,10q.36,88.14-.27,176.28c-.06,8.13,2.74,10.94,10.7,10.36,6.78-.49,13.62-.1,22.4-.1-2.83-26.18-5.49-50.88-8.46-78.3,19.47,23,41.23,39.6,67.22,48.84,38.1,13.54,77.05,24.78,115.57,37.22,17.85,5.76,36.23,10.58,53.16,18.39,25.61,11.83,33.4,28.21,29.51,55.94-2,14.4-4.86,28.69-7.66,44.92-7.31-5.45-12.86-9.86-18.69-13.88C466.12,500,406.65,476.85,343.4,463.57c-25.36-5.33-51.65-6.35-77.53-9.26-6.51-.74-10,1.28-9.94,8.79.7,57.67.44,115.36,1.85,173,.84,33.93,13.39,47.35,47.21,49.5,45.94,2.93,92,3.46,137.69-4.87,18.14-3.31,33.46-11.06,45-25.82,1.71-2.2,6.9-3.93,9.39-3,15.55,5.77,30.79,12.36,47.49,19.22-2.81,10.26-4.95,20.76-8.85,30.58-1.05,2.63-7.43,4.5-11.37,4.51-83.78.18-167.56,0-251.34,0q-86.49,0-173,0c-1.92,0-3.84-.43-6.12-3.12,7-1.88,14-3.73,21-5.64,35.28-9.6,44.19-19.76,47.88-55.78a317.18,317.18,0,0,0,1.34-32.19q.17-163.39,0-326.77a196.08,196.08,0,0,0-2.21-29.95c-2.86-18.26-13.09-30.69-31.71-35.52-9.54-2.47-19.09-4.94-28.31-9.09Z"/><path d="M515.9,399a160.57,160.57,0,0,1,49.71-52.15c-35.26,15.39-64.18,37.77-82.41,73.85l-15.07-4.31,47.7-60.47c-9.88,7.26-18.78,11.72-24.74,18.64-9.23,10.72-17.09,22.75-24.28,34.95-3.7,6.27-7.07,5.55-13.49,2.68,2.93-11.22,5.85-22.44,9.45-36.21-9.58,10.25-17.21,18.73-25.26,26.81-1.94,1.94-5.63,4-7.89,3.49-10.81-2.56-21.41-6-33.26-9.47,19.41-32,46.28-53.67,76.68-71.8-33.84,14.57-65.85,31.73-90.42,61,1.95-27.73,30.87-86.71,81.21-115.57-12.81-.32-34.4,10.17-69.1,33.58,2.43-13.08,20.09-39.11,46.28-60.91,19.64-16.36,42.23-29.25,62.66-43.1H469.85c27.93-16.48,58.11-23.84,90.17-28.8-3.94-1.53-7.83-3.23-11.85-4.55s-8.22-2.26-12.3-4.36c28.11-7.36,56.6-7.42,87.15-3.82l-6.26-7.67.81-2.91,65.26,16-2.3-6.44L725,178.68c-.4-3.66-.65-5.91-.9-8.23,1,0,1.86-.26,2.31,0,15.39,10.09,31,19.84,46,30.58,5.69,4.1,11.39,9.79,14,16,4.14,9.75,11.09,13.6,20.49,16.61,6.77,2.16,16.78,2.75,15.33,14.49-.14,1.12,2.84,3,4.67,3.92,64,33,54.55,103.23,21.29,142.16-5.58,6.53-11.79,12.53-17.71,18.78l-3.21-.41V368.13c-24.75-1.66-46.66-2.81-68.5-4.65-42.42-3.58-73.11,25.24-70.83,67.3.54,9.89,2.44,19.71,4.13,32.77L674.88,435.7c-7,31.83,8.35,57,22.13,83-15.38-6.69-26.67-17.5-35.6-31.21,5.61,30.31,18.93,56.49,41.64,78-42-14.4-69.43-42.4-81.65-85.1-2,27.4,4.68,52.33,17.64,76-36.33-19-55.12-49.7-61.41-89-6.43,20.94-3.77,41.17,1.12,61.55-7.92-9.27-15.19-18.38-16.13-31.53-.75-10.58-4.51-20.93-5.9-31.51-1.64-12.61-2.18-25.37-3.35-40L544,449.05l-24.56-15.33c9.1-13.86,16.72-28.28,27.14-40.34,7-8.06,17.9-12.75,26-21.29-9.63,3.62-19.53,6.68-28.81,11C534.89,387.31,526.59,392.83,515.9,399Zm76.91,36c3.52-11.84,7-23.67,10.48-35.26-11.84,9-16.35,22-17,36.66-.24,5.6,1.83,7.85,6.78,3.06-.12,6.92-3.14,16.8.3,20.11,5.85,5.64,4.84,11.31,6.09,17.35,2.27,10.95,5.11,21.79,7.44,31.52v-74l-8,4.27c-.1-1.23-.21-2.46-.32-3.68Zm-.62-218.63c11.85-7,25-9.27,37.61-4.75,14.82,5.31,28.62,13.37,43,20,10,4.65,20.18,9,30.27,13.44l1.42-2.89-8.59-10.05,1.22-1.56,15.68,9.89,1.62-2.6c-9.76-6.58-19.36-13.4-29.31-19.68-9.36-5.92-19.09-11.27-28.66-16.87,28.06,11.61,59.68,17.39,76.3,47.69l3.2-2.07L729.3,219.2l15.19,20.61c1.31-14.68-7.48-23-13.7-32.26l2.94-1.73,19.76,27.88,2,.15q-1.75-13.48-3.52-27c2.25,0,3,2,4.13,3.78,3.14,5.1,6.41,10.13,10.27,16.19l1.62-11.1,11.11,12c-3-13.74-37.59-41.11-44.24-37,.84,2.33,1.73,4.78,2.62,7.22-20.16-17.78-46.91-18.58-69.9-28.26-6.27-2.64-13.38-3.36-20.1-5l-1.13,2.08,11,8.33c-26.33-4.66-51.25-12.12-81-7.3,15.67,5.24,28.28,10.24,41.34,13.56a197.9,197.9,0,0,0,30.76,5.36c12.91,1.19,24.94,11.59,37.36,18-7.9-.29-14.84-2.84-22-4.68-2.08-.54-4.7,1-7.08,1.51l-10.41-3.35c.94,2.85,1.42,4.33,2,6.05-27-7-58.34-3.2-76.19,9.77l20.28,2.07c-23.66,4.13-47.21,3.6-67.51-1l45.72-9.82.18-3.36L547.69,190l38.12,4.52-5.23,6.39L623,197.67l0-3-31.24-5.5c.12-.67.24-1.33.35-2h22.6c-29.35-12.16-57.87-3.94-86.69,2.91L549,199.14c-22.36,5.57-42.87,12.45-63.39,25.06l12,1.17-29.27,9c.13.75.26,1.5.4,2.25l6.94,1.58L452,250.12l.93,1.8,38.53-11.3.84,2.83-17.43,8.11c10.39,1.75,17.15-3.49,26,1.81,6.14,3.68,17.51-1.14,26.54-2.16-.07-.9-.13-1.8-.19-2.69l-18.78-1-.36-2.13,21.68-4c0-.77,0-1.54,0-2.31l-28.22-5.69,26.61-1.34-14.87-6.72.36-2.35h52.64l0,2.85-10,1.1c0,.82,0,1.63,0,2.45l34.13,2.37c.12-.93.24-1.87.35-2.81L581.19,224l.51-2.11h34.56c0-1.07.08-2.14.11-3.22Q604.26,217.54,592.19,216.34Zm-43.88,54.91c-22.61,2.52-44.91,5.94-64.34,21.42,35.1-6.18,69.81-3.86,83.95,5.55-19.39,1.08-37.74,4.37-53.17,16.6,3.35.15,6.48-1.09,9.6-1,16.84.26,34.41-1.95,50.31,2.11,15,3.82,28.82,2.43,43.3,1.32l-28.38-10.33c.31-.86.61-1.73.91-2.59,7.38,1.45,14.71,3.25,22.16,4.24,7.27,1,14.65,1.12,22,1.63l-.23-2.08-25.63-15.84c34.11,13,60.68,11.22,74.81-6.39-29,11.1-57.35,6-73.05-13.51l11.66,6C604.13,249.8,586,240,556.47,242.22c15.63,7.78,30,16.18,39.29,30.82-17.32-9.63-33.56-21.72-56.74-17.4l25.44,7.64-.66,3.64H523.65c0,.88,0,1.76,0,2.65L548,271.52Zm90.2,53.93c5.71,1.18,9.75,2.36,13.87,2.78,7.2.75,14.53.56,21.67,1.62,16.46,2.44,33.2,4.12,49.14,8.52,14,3.87,28.12,6.54,41.5,14.93,11.71,7.33,29,6,43.8,8.46l.45-3.05-10.39-3.77,7.6-2.05.34-2.79C781.71,342.35,757.35,332.75,732,328s-51.75-4.73-77.69-6.79c51.62-6.23,102.29-3,151.47,15.52l.88-3.29-24.86-13.64c33.78,3.12,53.77,20.43,56.18,55.77l4-2q-3.3-15.54-6.59-31.07l1-.89,11.79,20.12c17.44-34.43,5-91.9-36.09-104.81-7.2,16.47-19.64,27.66-37.56,32.83,19.54-9.31,26.7-28.26,37.55-46.5-8.24-2.4-16-5.21-24-6.88-17.58-3.67-26.23.81-34.05,17-3.12,6.46-6.12,13-8.75,19.66-6.76,17.12-19.49,27.42-37.34,31.17-15.56,3.27-31.33,5.55-47,8.24C652.84,313.85,644.4,314.54,638.51,325.18ZM508,260.62c-35.66,8.23-55,34-77.62,55.37l8.82-4.83,1.73,2.07-21.18,18.71,1.5,1.71,28.14-17.35-4.73,8.55,58.67-18.63c-.21-.85-.41-1.69-.62-2.54l-38.42,5.68C467.7,284.09,490.79,276.59,508,260.62Zm65.08,98.57,50.09-9.5c.2.41.39.82.58,1.23l-17.53,11.93c.3.54.59,1.09.88,1.63l51.49-17.85.34,1.47-22.11,13.81.77.91,57.68-17c-27.64-11.38-54.73-3.37-84.75-1L626,336.87l-1-2.68-37.15,11.45,5.5,2.75Zm58.2,77.59c-.75-6.69-1.14-10.18-1.91-17.1-4.21,4.67-7.11,7-8.78,9.93-3.68,6.55-2.8,12.44,1.5,19.22,4.86,7.65,7.29,16.8,10.78,25.29l1.39-.34c-.52-5.09-1-10.17-1.34-13.14,5.64,15.6,11.88,32.82,18.6,51.38-2.39-24.44-4.58-46.9-6.77-69.26L640,446.44c-1.37-6.86-2.53-12.63-3.86-19.31ZM518.36,339.19,607.49,331c-14.94-4.13-29.74-5.2-44.16-8.09C544.22,319.13,526.68,325.46,518.36,339.19Zm140.46-92.28.61-3.14c-3.91-2.24-7.6-5.44-11.8-6.36-2.65-.58-7.54,1.4-8.9,3.69-6.09,10.28-.41,24.75,11.34,30.73,10.91,5.55,25.19,2.05,30.36-8,1.05-2.05-.45-5.39-.78-8.13-2.31.67-4.63,1.29-6.93,2-5.12,1.61-10.77,5.4-15.17,4.28-4.15-1.05-7-7.24-11.18-12.11ZM469.68,384.33l2.16,2.15c5.88-5.19,15.65-9.59,16.9-15.7A135.9,135.9,0,0,1,509.48,321C481.62,335,477.8,360.94,469.68,384.33Zm-24.47-3.88,1.78,1L487.46,330c-11.13,6.67-22.75,11.5-31.51,19.43-11.11,10.08-19.89,22.66-29.66,34.17-1.08,1.27-2.05,2.62-3.07,3.94l1.18,1.31L448.66,369C446.92,374.74,446.06,377.59,445.21,380.45ZM682.73,275c-13.89,6.44-27.66,9-41.47.89-14.65-8.66-16.23-22.69-14-39.12-10.17,12.79-7.93,29.26,4.14,40.43C646,290.63,667.42,290,682.73,275ZM563.28,467.62c9-25,17-47.57,24.31-67.9l-12.81,9.6C571.35,426.7,567.54,446,563.28,467.62Zm56.13-62.31,24-26.75C636.25,381.71,625.08,390.7,619.41,405.31Zm38.82,44.78,1.35.08q2.08-19.76,4.16-39.52l-2.74-.22Q659.61,430.26,658.23,450.09Z"/><path d="M375,484c32.69,8.08,62.59,17.53,90.21,33.13,20.14,11.38,39.64,24.07,60.54,33.88,28.73,13.5,58.28,25.38,87.89,36.94,33,12.9,66.91,23.63,99.55,37.33A302.29,302.29,0,0,1,769,656.2c50.7,35.45,50.31,81.24,9.75,124.11s-92.35,62.12-150,67.39c-66.11,6-130.17-4-192.07-27.57-16.62-6.32-16.62-6.49-16.66-23.9-.06-24.62,0-49.25,0-75.4,5.63,0,11.1-.72,16.23.27,3.16.61,7.42,3.26,8.43,6,19.27,52.35,61.56,75.48,112.8,87.15a242.4,242.4,0,0,0,100.42,1.87c18.49-3.54,35.38-10.46,49.84-22.59,20.92-17.55,24.35-40.07,10.26-63.4-11.26-18.65-29.35-29-48.45-36.57-37.28-14.82-75.34-27.72-113-41.52-44.93-16.46-89.07-34.3-127.88-63.11C393.63,563,381.68,526.15,375,484Z"/><path d="M264.53,175.79c32.49-32,67.86-57.89,118.54-58-2.06,5.27-3.08,9.61-5.3,13.26-7.88,13-19.28,21.68-33.35,27.83C319,170,292.6,176.1,264.53,175.79Z"/><path d="M806.21,663.66c21.12-15.72,26.8-39.8,28.38-65.27,13.88-3.41,13.79-3.26,15.52,10.34,3.72,29.3,4.93,58.45-2,87.55-1.74,7.28-4.12,11.06-12.67,11-8-.07-10.66-2.62-13.13-10.14C818.68,686.11,812.3,676,806.21,663.66Z"/><path d="M505,425.66l17.64-18.53,2.77,2.76c-7.44,5-6.7,18-17.63,19.58Z"/><path d="M764.3,281.22c.13-15.54,10.48-23.74,26.93-18.47Z"/><path d="M548,271.52c20,1.73,37.61,8.71,51.71,24-3.73-1.34-7.39-2.95-11.21-4-7.33-2-15.3-2.45-22-5.64-6.91-3.31-12.62-9.09-18.83-13.83,0,0,.38-.56.6-.87Z"/><path d="M711.8,206.76l-47.3-19.17C685.42,182.34,698.89,193.88,711.8,206.76Z"/></svg>