<svg id="Capa_1" data-name="Capa 1" xmlns="http://www.w3.org/2000/svg" viewBox="0 0 1000 1000"><defs><style>.cls-1{fill:#fff;}</style></defs><title>Mesa de trabajo 7</title><rect x="2.53" y="1.38" width="996.77" height="998.81"/><path class="cls-1" d="M122.28,234.87h332C443,244,432.61,252.6,422,260.88a7.84,7.84,0,0,1-6.27,1c-27.72-8.7-56.25-7.9-84.71-8-21.14-.08-42.29,0-64.27,0V439.16h27.6q-3.9-35.07-7.83-70.57c.74,0,1.6-.25,1.84,0,24.53,29.91,57.29,45.67,92.49,56.94s70.25,21.94,105.38,32.91c2.22.69,4.39,1.54,6.54,2.43,29.9,12.39,39,27.23,35.36,60.21-1.36,12.48-4.66,24.74-7.34,38.41-75.86-59-160.83-85.66-254.17-89.74-.3,5.23-.65,8.56-.65,11.9,0,46.54-.19,93.09.18,139.63a229.61,229.61,0,0,0,3.18,35.7c3,18.34,13.34,29.91,31.11,30.72,43.28,2,86.8,5.25,129.75-3.65,18.67-3.87,36.68-10.45,46.59-30.77l50.74,20.09c-3,10.63-5.45,21.48-9.28,31.79-.84,2.27-6.46,3.71-9.89,3.73-50.35.19-100.7.06-151,0q-112.29-.06-224.58-.14c-4,0-8-.46-12-.71l-.37-3.32c3.17-1,6.31-2.13,9.51-3,6.7-1.9,13.46-3.55,20.12-5.56,16.61-5,26.63-16,28.35-34.2.94-9.86,2.23-19.76,2.24-29.63q.18-169.93-.05-339.85c0-31.37-8.25-41.86-37.84-49.67-6.87-1.81-13.8-3.39-20.7-5.07C122.05,236.8,122.16,235.83,122.28,234.87Z"/><path class="cls-1" d="M372.37,497.88c31.79,7.54,60.56,18.35,86.62,34.63,59.41,37.08,124.39,60.14,189,84.59,24,9.1,47.08,21.61,69.53,34.52,11,6.32,20.61,16.15,29.05,26,19.9,23.33,21.48,50.51,5.81,77.86-21,36.6-53.6,58-91,72.39-50.55,19.53-102.89,18.55-154.79,9.2-28.76-5.19-56.48-16.44-84.7-24.86-7.34-2.19-10.45-6.39-10.27-14.78.53-24.9.19-49.82.19-75.45h23.51c9.56,39.6,36,63.37,70.7,77.44,43.33,17.59,88.33,20.33,133.51,7.91a97.42,97.42,0,0,0,30.25-14.72c24.42-17.52,26.82-50.1,6-72.09-15.92-16.79-36.42-26-57.09-34.29C574,668.41,528.47,652.62,484.3,633.46a315.71,315.71,0,0,1-66.07-39C388.14,571.33,375.88,537.28,372.37,497.88Z"/><path class="cls-1" d="M745.6,252.09l-13.9-10.56c-.39,2.49-.92,5.82-1.75,11l-9.63-16.29c-.45,8.55-.84,15.76-1.22,22.93l-19.23-29.07-2.94,1.81c5.55,9.51,15.15,17.45,11.87,31.22l-8.49-12.85c.76,8.51,1.35,15.25,2,22l-2.62,1c-14-23.67-36.08-34.43-60.39-41.7,14.82,11.57,34.08,17.13,43.66,35.64l-11.95-10-1.25.84,5.63,9.11c-.46,1-.91,1.92-1.36,2.88-10.26-4.66-20.61-9.09-30.73-14-11.32-5.54-22.19-12.14-33.7-17.21-17.71-7.82-34.89,0-52.22,3.05,12.44,2.78,25.82-4.59,40.08,5.17H561.65c-.17.58-.35,1.15-.53,1.73l8.76,4.7-.4,3c-9.11-1.2-18.48-1.36-27.26-3.81-19.46-5.43-38.68-8.56-61-.7L502.55,253c0,.45.05.89.08,1.33l-37,10.65c.13.41.25.81.38,1.21l42-5c.11,1,.21,1.93.32,2.89l-29.22,4.84c.08.92.15,1.84.23,2.76h27.77c.31,1.12.61,2.23.92,3.34-44.1,5.48-82.89,23.55-118,50.68,26.81-49.9,65.56-84.4,118.94-101.56H459c30.29-15.05,59.83-22.67,91.32-25.92l-28.09-9.09-.06-1.76c9.5-1.07,19-2.71,28.48-3.07a267.54,267.54,0,0,1,30.75.8c9.74.73,19.41,2.38,30.58,3.82l-11.48-8c.19-.67.38-1.35.56-2,12.4,3.24,24.76,6.62,37.2,9.67,10.23,2.5,20.91,3.58,30.73,7.19,9.43,3.47,18,9.39,27.58,14.56l-5-9.34c22.46,11.79,44.11,24.25,56.34,47.94C747.19,250,746.39,251,745.6,252.09ZM552.06,226.3l-.36,2.86-36.88,10.11c.07.87.13,1.74.19,2.62,9.58-.47,19.58.69,28.65-1.77,15.45-4.2,30.32-10.67,43.45-15.47-5.32-3.5-13.76,3.41-22.75-4.69-6.55-5.9-20.34-3.23-30.91-4.38-.07.56-.15,1.12-.22,1.68Zm33.66-23.74c-.27,1.08-.53,2.16-.8,3.24l14.45,8.28-9.78,3.62L623.26,228l-4.91-8.18,34,7.45.71-2.63Zm58.16,5.87-1.65,3.76,37.58,19.95,1.4-2.73Z"/><path class="cls-1" d="M613.6,340.85c7.18-2.46,14.22-5.58,21.57-7.23,14.52-3.26,29.29-5.36,43.82-8.59s24.68-12.41,30.6-26.64c3.52-8.47,7.31-16.82,11.22-25.1,5.33-11.34,14.61-15.93,26.19-13.74,9.54,1.8,18.76,5.37,31.08,9L722.85,324.9c16.28-15.26,38-18.8,46.18-40.74,3.47-9.34,8.72-10,17.55-4.81,42.58,25.14,52.56,80.47,22.1,123.41-4.84,6.83-10.35,13.15-16.45,20.83-.52-10.51-.31-19.48-1.53-28.23-2.71-19.53-13-32.86-31.25-40-39.83-15.53-80.9-19.68-123-15.74-1.55.15-3,.83-4.64,3.67,3.21,0,6.42,0,9.63,0A311.54,311.54,0,0,1,746.79,360.6c12.22,4.27,24,9.5,32.58,20.46-14.94,7.2-55.57,2-101.36-13.67h32.77c-31.26-15.63-64.17-17.34-96.8-20.31C613.85,345,613.73,342.93,613.6,340.85Zm114.34-38.91c22.23-12.71,22.23-12.71,22.1-19.22C737.21,281.92,729.63,288.52,727.94,301.94Z"/><path class="cls-1" d="M642.48,390.4c3.56-1.61,7.06-3.41,10.7-4.8,5.94-2.27,8.69-.21,7.17,6.38l27.89-10.21c-28.85,23.41-35,53.18-28.71,88.45l-10.64-27.46c-7.56,22.65-3.24,43,18.55,85.8-17.7-9.19-29.19-22.29-35.91-42.12-1.18,25.11,10.64,48.24,45.3,90.22-43-16.57-70.71-45.22-79.32-92.16-4.28,15.32-2.32,25.87,13.87,76.34-28.86-10.59-49-45.66-52.08-92.14-8.17,23.3-5.9,45.07-1.91,67.21-7.4-7.5-11.29-16.55-12.94-27.08-1.52-9.73-4.43-19.23-5.87-29a83.45,83.45,0,0,1-.27-19.22c.71-8.1.17-17.54,4.06-23.83,6.16-10,15.55-17.8,24.93-25.09L546,461.27l3.41,1.8c7.53-20.28,16.35-39.66,32.57-52.81-5.11,14.18-10.47,29.08-15.83,44l3,1.57,4.73-4.13c2.42,18.43,4.83,36.7,7.23,55l2.47-.13c-1.11-22.19,2-43.5,9.54-61.49l28.27,69.55,1.32-.66V452.66l3.14-.19c.85,3.78,1.7,7.55,2.88,12.83,1.82-12.56,3.43-23.75,5-34.94l1.6.32V455.5c-.08-23.64,18.52-36.12,28.45-53.94l-14,16.48c-8.93-4.7-8.93-4.7,4-24-17.58,9.55-23.06,25.86-29.87,41.1l-3.2-1.46c3.47-9.7,6.75-19.48,10.48-29.07,1.57-4,4.09-7.71,6.18-11.54Z"/><path class="cls-1" d="M521.69,278.17c14.44-3,28.18.46,45.26,10.65-5-9.56-6.64-10.84-31.39-23.76,23.59-4.8,49.93,9.54,64,35L595,301c-1.41,8.75,33.59,15.09,55.18,10.09-11.47,13.21-33.63,14.18-63.17,4.85l23.1,13.41c.07.54.15,1.08.23,1.62-6.82-.32-13.71-.17-20.45-1.09-7.11-1-14.09-2.95-21.81-2.32l30,11.09.1,1.84c-12.43-.86-25.18-.23-37.23-2.92-19-4.25-37.83-6.35-57-2.39-1.12.23-2.34-.07-5.26-.2,15-11.82,31.41-13.86,47.68-16.71-23.3-9.16-47-9.09-72-6.74,6.52-3.59,12.84-7.66,19.61-10.65,6.92-3.06,14.28-5,22.73-7.95l-12-1.2-.2-3,41.39-2Zm20.47,17.19L541,298.87l33.63,16,1.41-3.18Z"/><path class="cls-1" d="M497.09,283.7l-41.93,24.76c.09.29.17.58.25.87l11-3.73-33.58,31.7,58.95-14,1,3.12c-40.93,19.78-82.28,38.89-113.38,77.39C391.33,347.52,434.89,292,497.09,283.7Z"/><path class="cls-1" d="M761.86,666.27c20.6-13.82,23.12-38.12,25-62.42,14.17-3.92,14.74-3.29,16.1,10.86,2.75,28.67,4,57.15-2.9,85.54-1.79,7.39-4.89,9.07-11.49,8.74-6.41-.32-10.23-.72-12.27-9.17C773.56,688.69,767.3,678.48,761.86,666.27Z"/><path class="cls-1" d="M381.6,150.89c-6.51,9.55-10.84,18.51-17.43,25-19,18.88-65.78,33.12-92.33,29.38C283.49,179.11,346.84,146.28,381.6,150.89Z"/><path class="cls-1" d="M502.89,411.65,554,388.15l1.75,2.75c-20.21,15.87-40,32.15-47.82,58.05-11.73-2.18-12.55-3.87-7.05-12.83,1.42-2.3,3-4.5,4.6-6.68,1.39-1.89,2.9-3.69,3.27-6.8-3.88,3.68-8.54,6.79-11.45,11.15-5.74,8.62-12.34,10.15-20.92,5.22A34.69,34.69,0,0,0,471,437c4.1-24,49.8-66.45,74.89-71.51L501,410.62Z"/><path class="cls-1" d="M476.43,345.94c-11.89,18.74-23.9,37.8-36.05,56.77-4.51,7-8.7,14.72-20.53,14.38L430,394.28c-5.71,5.82-10.55,9.58-13.89,14.43-6,8.64-12.57,11.51-22.59,4.55C412.4,378.93,444.5,362,476.43,345.94Z"/><path class="cls-1" d="M574.18,386.92,596.26,372l-.61-2-42.82,9.4c13.69-15.9,27.83-23.36,48.64-24.73l-9.19,5.62c24.67-1.52,49.23-4.74,75.28,3.61l-60.9,19.21,16.89-11.6-.85-2.27-47.41,19.25Z"/><path class="cls-1" d="M450.44,429.93l15.8-27.83c-.35-.46-.69-.93-1-1.4l-11.85,9-1.68-.82c4.45-10.09,8.65-20.31,13.43-30.23,3.5-7.26,3-17.06,12.18-20.87,3.4-1.42,6.7-3.11,11.24-2.88-1.78,2.3-4.44,4.33-5.17,6.94-1.94,7-3.05,14.21-4.52,21.44l30.86-11.66c.24.56.48,1.12.71,1.68-7.14,5.85-15.18,10.88-21.24,17.76-10.18,11.56-19,24.37-28.63,36.48-1.91,2.41-4.73,4-7.13,6Z"/><path class="cls-1" d="M583,350.77l-80,8.58c1.24-10.81,10.16-13.89,18.41-15.24,9.33-1.52,19.13-.75,28.65,0,11.14.88,22.21,2.81,33.31,4.28Z"/><path class="cls-1" d="M630.36,270.1l-10.37,4c4.53,4.47,7.75,10.13,12,11.15,4,.95,9.09-3,13.73-4.77,2.14-.81,4.33-1.47,6.5-2.2.17,2.39,1.19,5.16.38,7.11-4.45,10.69-18.1,15.33-28.63,10.09-10.25-5.1-16.19-19.67-11.59-29.33,1-2.06,4.08-4.9,5.51-4.53,4.58,1.19,8.83,3.72,13.21,5.73Z"/><path class="cls-1" d="M642.48,390.4l-5.08,2.65c-10.43,7.7-21.61,14.54-31,23.38-7.81,7.32-13.53,17-19.77,25.11,2.37-28.12,24.59-50.43,57.83-56.55C643.67,387.09,643.08,388.75,642.48,390.4Z"/><path class="cls-1" d="M604.69,258.23c-4.11,15.45-5.18,28.58,7,38.2,12.49,9.85,25.9,10.71,40.57,1.64-10.64,14-33.16,14.93-46,3C593.85,289.59,592.34,270.39,604.69,258.23Z"/><path class="cls-1" d="M532.45,434.23c-2.21,9.44-4.27,18.26-6.33,27.07C516.31,457.11,518.72,445.81,532.45,434.23Z"/><path class="cls-1" d="M612.32,432.18v37.55h-1.76V432.15Z"/></svg>