<svg id="Capa_1" data-name="Capa 1" xmlns="http://www.w3.org/2000/svg" viewBox="0 0 1000 1000"><defs><style>.cls-1{fill:#f5ebdd;}.cls-2{fill:#3b1f2e;}</style></defs><title>Mesa de trabajo 5</title><rect class="cls-1" x="1" y="0.87" width="1000.34" height="998.81"/><path class="cls-2" d="M489.16,188.25c-11.48,9.29-22.28,18.25-33.4,26.82-1.48,1.14-4.56.59-6.84.33-24-2.76-48-6.82-72.08-8.12-26-1.41-52.19-.06-78.29-.37-7.51-.08-10.81,1.54-10.78,9.93q.35,87.12-.27,174.22c-.06,8,2.7,10.81,10.55,10.24,6.68-.49,13.43-.1,22.09-.1-2.79-25.87-5.42-50.28-8.34-77.39,19.19,22.7,40.64,39.15,66.27,48.27,37.57,13.39,76,24.5,114,36.79,17.6,5.7,35.72,10.46,52.41,18.18,25.25,11.68,32.94,27.88,29.1,55.28-2,14.23-4.79,28.36-7.55,44.39-7.21-5.38-12.68-9.74-18.43-13.71-52.66-36.42-111.3-59.25-173.66-72.38-25-5.26-50.93-6.27-76.44-9.15-6.42-.73-9.9,1.27-9.81,8.69.7,57,.44,114,1.84,171,.82,33.53,13.19,46.79,46.54,48.92,45.3,2.89,90.74,3.41,135.76-4.81,17.89-3.27,33-10.94,44.35-25.52,1.69-2.18,6.8-3.89,9.25-3,15.34,5.7,30.37,12.2,46.82,19-2.76,10.14-4.88,20.51-8.72,30.22-1,2.6-7.33,4.45-11.21,4.46-82.6.18-165.2,0-247.81,0q-85.27,0-170.56.06c-1.9,0-3.79-.43-6-3.09,6.92-1.86,13.85-3.69,20.76-5.57,34.78-9.49,43.56-19.52,47.21-55.13a315.51,315.51,0,0,0,1.32-31.81q.16-161.47,0-322.95a194,194,0,0,0-2.18-29.6c-2.81-18.05-12.9-30.34-31.26-35.1-9.41-2.45-18.82-4.88-27.91-9Z"/><path class="cls-2" d="M544,376.8a158.6,158.6,0,0,1,49-51.55c-34.77,15.22-63.27,37.34-81.25,73L496.87,394l47-59.76c-9.74,7.17-18.51,11.57-24.39,18.42-9.1,10.59-16.85,22.48-23.94,34.53-3.65,6.21-7,5.49-13.3,2.66,2.88-11.09,5.77-22.18,9.31-35.79-9.44,10.13-17,18.51-24.9,26.49-1.91,1.92-5.55,4-7.78,3.46-10.66-2.53-21.11-5.93-32.8-9.36,19.14-31.65,45.63-53.05,75.61-71C468.35,318.07,436.79,335,412.56,364c1.93-27.4,30.44-85.69,80.07-114.22C480,249.44,458.72,259.81,424.5,283c2.39-12.93,19.81-38.65,45.63-60.2,19.36-16.16,41.64-28.9,61.78-42.59H498.56c27.55-16.29,57.31-23.57,88.92-28.47-3.89-1.51-7.73-3.19-11.69-4.49s-8.1-2.24-12.13-4.32c27.72-7.26,55.81-7.32,85.93-3.76-2.89-3.56-4.54-5.57-6.18-7.59l.81-2.88,64.34,15.85c-.27-.75-.95-2.68-2.27-6.36l43.84,20.93c-.39-3.62-.63-5.83-.88-8.13,1,0,1.83-.25,2.27,0,15.18,10,30.62,19.61,45.32,30.22,5.61,4.05,11.23,9.68,13.84,15.83,4.08,9.64,10.93,13.45,20.2,16.42,6.67,2.14,16.54,2.72,15.11,14.33-.13,1.1,2.8,2.93,4.6,3.87,63,32.62,53.79,102,21,140.5-5.5,6.45-11.63,12.38-17.47,18.56L851,390.3v-44c-24.4-1.64-46-2.78-67.54-4.6-41.82-3.53-72.08,25-69.83,66.52.53,9.77,2.4,19.48,4.07,32.38l-16.94-27.52c-7,31.46,8.24,56.35,21.82,82-15.16-6.61-26.3-17.3-35.1-30.85,5.53,30,18.66,55.84,41,77.1-41.43-14.23-68.45-41.9-80.5-84.1-2,27.08,4.61,51.72,17.39,75.14-35.82-18.82-54.34-49.11-60.55-87.95-6.34,20.69-3.72,40.68,1.11,60.83-7.81-9.16-15-18.16-15.9-31.16-.74-10.46-4.45-20.68-5.82-31.14-1.62-12.47-2.15-25.07-3.31-39.57l-9.2,22.87-24.22-15.15c9-13.69,16.49-27.95,26.76-39.87,6.86-8,17.65-12.6,25.65-21-9.49,3.58-19.25,6.61-28.4,10.91C562.69,365.27,554.51,370.72,544,376.8Zm75.83,35.57,10.34-34.85c-11.68,8.86-16.13,21.7-16.75,36.23-.24,5.54,1.81,7.76,6.69,3-.12,6.84-3.1,16.6.29,19.88,5.78,5.56,4.77,11.17,6,17.14,2.24,10.82,5,21.53,7.33,31.15V411.79L625.83,416c-.11-1.21-.21-2.42-.32-3.63Zm-.61-216.08c11.69-6.87,24.68-9.15,37.08-4.69,14.61,5.25,28.22,13.21,42.36,19.8,9.87,4.6,19.89,8.87,29.84,13.29l1.4-2.86-8.46-9.93,1.2-1.54q7.73,4.89,15.46,9.77l1.59-2.56c-9.62-6.51-19.08-13.25-28.89-19.46-9.24-5.84-18.83-11.14-28.26-16.67,27.66,11.47,58.84,17.18,75.23,47.13l3.16-2c-1.94-8.13-3.87-16.26-6.52-27.41l15,20.37c1.29-14.5-7.37-22.71-13.5-31.88l2.89-1.71,19.49,27.55,2,.15q-1.74-13.32-3.47-26.64c2.22,0,3,2,4.07,3.73,3.1,5,6.32,10,10.12,16,.59-4,1-7.12,1.6-11l10.95,11.85c-3-13.58-37.06-40.63-43.62-36.58.84,2.31,1.72,4.73,2.59,7.14-19.87-17.57-46.25-18.37-68.92-27.93-6.18-2.61-13.19-3.32-19.82-4.9l-1.11,2.06,10.85,8.23c-26-4.61-50.54-12-79.84-7.21,15.44,5.17,27.88,10.11,40.75,13.39a195,195,0,0,0,30.33,5.3c12.72,1.18,24.59,11.46,36.83,17.8-7.78-.28-14.63-2.81-21.66-4.63-2-.53-4.64.95-7,1.5l-10.27-3.31c.93,2.81,1.41,4.27,2,6-26.66-6.88-57.52-3.16-75.11,9.66l20,2c-23.33,4.09-46.54,3.56-66.56-1L598,185.4l.17-3.33L575.32,170.3l37.58,4.46-5.16,6.32,41.85-3.23,0-3-30.8-5.44c.11-.66.23-1.32.34-2h22.28c-28.94-12-57-3.9-85.47,2.87l20.61,9c-22,5.5-42.26,12.3-62.5,24.76l11.8,1.16L497,214.16c.14.74.27,1.49.4,2.23l6.84,1.56L481,229.68l.92,1.78,38-11.17c.27.93.54,1.86.82,2.79l-17.18,8c10.24,1.73,16.91-3.45,25.63,1.79,6.06,3.64,17.26-1.12,26.17-2.14-.07-.88-.13-1.77-.19-2.65l-18.51-1-.36-2.11,21.37-4c0-.77,0-1.53,0-2.29l-27.83-5.62,26.24-1.33-14.66-6.64.35-2.32h51.91l0,2.81-9.85,1.09v2.42l33.65,2.35c.11-.93.23-1.86.34-2.78l-9.51-4.86.51-2.08h34.07c0-1.06.08-2.12.11-3.18Q631.09,197.47,619.19,196.29Zm-43.26,54.27c-22.3,2.49-44.29,5.87-63.44,21.17,34.6-6.11,68.83-3.82,82.77,5.49-19.11,1.07-37.21,4.32-52.42,16.41,3.3.14,6.39-1.08,9.46-1,16.61.25,33.93-1.93,49.61,2.08,14.78,3.78,28.42,2.4,42.69,1.3l-28-10.2c.3-.86.59-1.71.89-2.56,7.28,1.43,14.51,3.21,21.85,4.19,7.17,1,14.45,1.1,21.68,1.61l-.23-2.06-25.28-15.65c33.64,12.85,59.83,11.09,73.77-6.32-28.57,11-56.54,6-72-13.35l11.5,5.88C631,229.37,613.08,219.67,584,221.88c15.41,7.68,29.63,16,38.74,30.46-17.08-9.53-33.09-21.47-55.94-17.21l25.08,7.56c-.22,1.19-.43,2.39-.65,3.59H551.61c0,.87,0,1.75,0,2.62l24,1.93Zm88.93,53.3c5.63,1.17,9.61,2.33,13.67,2.75,7.1.74,14.33.55,21.37,1.6,16.23,2.41,32.73,4.07,48.45,8.42,13.8,3.83,27.73,6.47,40.92,14.75,11.54,7.25,28.58,5.91,43.18,8.36l.45-3L822.65,333l7.5-2,.34-2.76c-24.43-7.39-48.46-16.88-73.41-21.58s-51-4.67-76.6-6.72c50.89-6.15,100.86-3,149.34,15.35l.87-3.25-24.52-13.48c33.31,3.08,53,20.19,55.4,55.12l3.9-2Q862.21,336.35,859,321l.94-.88L871.54,340c17.2-34,4.92-90.83-35.59-103.59-7.09,16.28-19.36,27.34-37,32.44,19.26-9.19,26.32-27.92,37-46-8.12-2.37-15.75-5.15-23.62-6.8-17.33-3.63-25.87.8-33.58,16.81-3.07,6.38-6,12.83-8.62,19.42-6.67,16.93-19.21,27.1-36.82,30.81-15.34,3.23-30.88,5.48-46.34,8.15C679,292.67,670.67,293.35,664.86,303.86Zm-128.68-63.8C501,248.19,482,273.7,459.65,294.78l8.7-4.78,1.71,2.05-20.89,18.5,1.48,1.68,27.74-17.15-4.66,8.45,57.85-18.41c-.21-.83-.41-1.67-.62-2.51l-37.87,5.61C496.44,263.25,519.21,255.84,536.18,240.06Zm64.16,97.41,49.4-9.38c.19.4.38.81.56,1.22L633,341.09c.29.54.58,1.08.86,1.62l50.77-17.65.33,1.45L663.2,340.16l.75.9,56.88-16.82c-27.26-11.24-54-3.33-83.56-1l15.21-7.83-1-2.65-36.63,11.32,5.43,2.72Zm57.39,76.68c-.74-6.6-1.12-10-1.89-16.9-4.15,4.62-7,6.89-8.65,9.82-3.63,6.48-2.76,12.29,1.48,19,4.79,7.57,7.19,16.61,10.63,25l1.37-.34c-.51-5-1-10.05-1.32-13,5.56,15.41,11.71,32.44,18.34,50.78-2.36-24.15-4.52-46.35-6.68-68.45l-4.72,3.63c-1.35-6.78-2.49-12.48-3.81-19.08C661,407.59,660,409.63,657.73,414.15ZM546.39,317.7l87.88-8c-14.73-4.09-29.31-5.15-43.53-8C571.89,297.88,554.6,304.14,546.39,317.7Zm138.5-91.19.6-3.11c-3.86-2.21-7.49-5.38-11.64-6.28-2.62-.58-7.43,1.38-8.77,3.65-6,10.16-.4,24.46,11.17,30.36,10.77,5.49,24.84,2,29.94-7.88,1-2-.45-5.32-.77-8-2.27.66-4.57,1.27-6.83,2-5,1.59-10.62,5.33-15,4.23-4.09-1-6.87-7.15-11-12ZM498.39,362.32l2.14,2.12c5.8-5.12,15.43-9.48,16.67-15.52a134.25,134.25,0,0,1,20.44-49.17C510.17,313.59,506.4,339.2,498.39,362.32Zm-24.12-3.84,1.76,1,39.9-50.92c-11,6.6-22.44,11.37-31.06,19.21-11,10-19.62,22.39-29.25,33.77-1.06,1.25-2,2.59-3,3.89l1.16,1.3,23.92-19.62C476,352.84,475.11,355.66,474.27,358.48ZM708.46,254.24c-13.7,6.37-27.27,8.95-40.88.88-14.46-8.56-16-22.42-13.77-38.66-10,12.64-7.81,28.91,4.09,40C672.24,269.72,693.36,269.07,708.46,254.24ZM590.68,444.64c8.83-24.72,16.8-47,24-67.11L602,387C598.65,404.2,594.89,423.28,590.68,444.64ZM646,383.06l23.69-26.44C662.63,359.73,651.62,368.62,646,383.06Zm38.27,44.25,1.33.08q2.05-19.53,4.1-39.06l-2.7-.21Z"/><path class="cls-2" d="M405.07,460.85c32.23,8,61.71,17.32,88.94,32.74,19.86,11.24,39.09,23.79,59.69,33.48,28.33,13.34,57.47,25.08,86.65,36.51,32.55,12.75,66,23.35,98.17,36.89a298.33,298.33,0,0,1,55,30.54c50,35,49.6,80.29,9.61,122.66s-91.05,61.4-147.88,66.61c-65.17,6-128.34-4-189.37-27.25-16.38-6.25-16.38-6.42-16.43-23.62-.06-24.34,0-48.68,0-74.52,5.55,0,10.94-.71,16,.27,3.11.6,7.32,3.21,8.31,5.91,19,51.74,60.69,74.59,111.22,86.13A238.38,238.38,0,0,0,684,789c18.23-3.5,34.89-10.34,49.14-22.32,20.63-17.35,24-39.61,10.11-62.66-11.1-18.44-28.94-28.64-47.76-36.14-36.76-14.65-74.29-27.39-111.45-41-44.3-16.26-87.82-33.9-126.08-62.37C423.42,538.85,411.64,502.48,405.07,460.85Z"/><path class="cls-2" d="M296.12,156.22C328.16,124.57,363,99,413,98.91c-2,5.21-3.05,9.51-5.23,13.11-7.77,12.81-19,21.43-32.89,27.51C349.82,150.52,323.81,156.53,296.12,156.22Z"/><path class="cls-2" d="M830.21,638.39c20.82-15.54,26.42-39.34,28-64.51,13.68-3.37,13.6-3.23,15.3,10.21,3.67,29,4.86,57.78-2,86.54-1.72,7.19-4.06,10.93-12.49,10.85-7.85-.07-10.52-2.6-12.94-10C842.5,660.57,836.21,650.56,830.21,638.39Z"/><path class="cls-2" d="M533.25,403.17l17.39-18.32,2.74,2.73c-7.34,4.93-6.61,17.81-17.39,19.35Q534.63,405,533.25,403.17Z"/><path class="cls-2" d="M788.88,260.41c.13-15.35,10.34-23.46,26.56-18.25Z"/><path class="cls-2" d="M575.62,250.83c19.69,1.71,37.08,8.6,51,23.75-3.68-1.32-7.29-2.9-11.06-3.91-7.22-1.93-15.08-2.42-21.67-5.57-6.82-3.27-12.44-9-18.56-13.67,0,0,.37-.55.59-.86Z"/><path class="cls-2" d="M737.13,186.83l-46.65-19C711.12,162.69,724.4,174.1,737.13,186.83Z"/></svg>