<svg id="Capa_1" data-name="Capa 1" xmlns="http://www.w3.org/2000/svg" viewBox="0 0 1000 1000"><defs><style>.cls-1{fill:#3b1f2e;}.cls-2{fill:#d9b56e;}</style></defs><title>Mesa de trabajo 4</title><rect class="cls-1" x="0.74" y="-1.68" width="999.83" height="1002.89"/><path class="cls-2" d="M138.13,197.29h332c-11.27,9.14-21.69,17.74-32.34,26a7.88,7.88,0,0,1-6.27,1c-27.72-8.71-56.25-7.91-84.71-8-21.14-.08-42.29,0-64.27,0V401.59h27.6q-3.9-35.07-7.83-70.58c.74,0,1.6-.25,1.84,0C328.7,361,361.46,376.71,396.66,388c35,11.23,70.25,21.94,105.38,32.9,2.22.69,4.39,1.54,6.54,2.43,29.9,12.4,38.95,27.24,35.36,60.21-1.36,12.49-4.66,24.75-7.34,38.42-75.86-59-160.83-85.66-254.17-89.74-.3,5.22-.65,8.56-.65,11.89,0,46.55-.19,93.09.18,139.63a229.74,229.74,0,0,0,3.18,35.71c3.05,18.34,13.34,29.91,31.11,30.71,43.28,2,86.8,5.26,129.75-3.64,18.67-3.87,36.68-10.46,46.59-30.78l50.74,20.09c-3,10.64-5.45,21.48-9.28,31.79-.84,2.27-6.46,3.72-9.89,3.73-50.35.19-100.7.07-151,0q-112.29-.07-224.58-.14c-4,0-8-.47-12-.72l-.37-3.31c3.17-1,6.31-2.13,9.51-3,6.7-1.9,13.46-3.55,20.12-5.56,16.61-5,26.63-16,28.35-34.2.94-9.86,2.23-19.75,2.24-29.63q.18-169.92-.05-339.84c0-31.37-8.26-41.86-37.84-49.67-6.87-1.82-13.8-3.39-20.7-5.08C137.9,199.23,138,198.26,138.13,197.29Z"/><path class="cls-2" d="M388.22,460.31c31.79,7.54,60.56,18.35,86.62,34.62,59.41,37.09,124.39,60.15,189,84.59,24,9.1,47.08,21.62,69.53,34.52,11,6.32,20.61,16.16,29.05,26.05,19.9,23.32,21.48,50.51,5.81,77.86-21,36.59-53.6,58-91,72.39-50.55,19.53-102.89,18.55-154.79,9.19-28.76-5.18-56.48-16.44-84.7-24.85-7.34-2.19-10.45-6.39-10.27-14.79.53-24.9.19-49.82.19-75.44h23.51c9.56,39.6,36,63.36,70.7,77.44,43.33,17.59,88.33,20.32,133.51,7.9a97.18,97.18,0,0,0,30.25-14.71c24.42-17.53,26.82-50.1,6-72.1-15.92-16.78-36.42-26-57.09-34.28-44.71-17.87-90.24-33.66-134.41-52.82a315.28,315.28,0,0,1-66.07-39C404,533.76,391.73,499.71,388.22,460.31Z"/><path class="cls-2" d="M761.45,214.52,747.55,204c-.39,2.49-.92,5.81-1.75,11l-9.63-16.29c-.45,8.54-.84,15.76-1.22,22.93-7.07-10.7-13.15-19.88-19.23-29.07l-2.94,1.8c5.55,9.52,15.15,17.46,11.87,31.23-2.78-4.2-5.26-8-8.49-12.86.75,8.51,1.35,15.26,2,22l-2.62,1c-14-23.67-36.08-34.43-60.39-41.69,14.82,11.57,34.08,17.12,43.66,35.64l-12-10-1.25.84,5.63,9.12-1.37,2.88c-10.25-4.66-20.6-9.09-30.72-14-11.32-5.54-22.19-12.14-33.7-17.22-17.71-7.82-34.89,0-52.22,3.06,12.44,2.77,25.82-4.59,40.08,5.16H577.5c-.18.58-.35,1.16-.53,1.73l8.76,4.7-.4,3c-9.11-1.2-18.48-1.36-27.26-3.81-19.46-5.43-38.68-8.56-61-.7l21.37,1.09c0,.44.05.88.08,1.33l-37,10.65c.13.4.25.8.38,1.2l42-5c.11,1,.21,1.93.32,2.9L495,231.33c.08.92.15,1.84.23,2.76H523c.31,1.11.61,2.22.92,3.34-44.11,5.48-82.89,23.54-118,50.68,26.81-49.9,65.56-84.41,118.94-101.57H474.87c30.29-15,59.83-22.66,91.32-25.92l-28.09-9.08-.06-1.76c9.5-1.08,19-2.71,28.48-3.08a272.15,272.15,0,0,1,30.75.8c9.74.74,19.41,2.39,30.58,3.82l-11.48-7.95c.19-.68.38-1.36.56-2,12.4,3.24,24.76,6.62,37.2,9.67,10.23,2.51,20.91,3.58,30.73,7.2,9.43,3.47,18,9.39,27.58,14.56l-5-9.35c22.46,11.79,44.11,24.26,56.34,48C763,212.41,762.24,213.46,761.45,214.52Zm-193.54-25.8-.36,2.86L530.67,201.7c.07.87.13,1.74.19,2.61,9.58-.47,19.58.7,28.65-1.77,15.45-4.19,30.32-10.67,43.45-15.46-5.32-3.51-13.76,3.41-22.75-4.69-6.55-5.91-20.34-3.23-30.91-4.38-.07.56-.15,1.12-.22,1.67ZM601.57,165c-.27,1.08-.53,2.16-.8,3.24l14.45,8.28-9.78,3.61,33.67,10.27c-2-3.36-2.65-4.42-4.91-8.17l34,7.44L669,187Zm58.16,5.86-1.65,3.76,37.58,19.95,1.4-2.73Z"/><path class="cls-2" d="M629.45,303.28c7.18-2.46,14.22-5.58,21.57-7.24,14.52-3.26,29.29-5.35,43.82-8.58s24.68-12.42,30.6-26.65c3.52-8.46,7.31-16.81,11.21-25.1,5.34-11.34,14.62-15.93,26.2-13.74,9.54,1.81,18.76,5.37,31.08,9L738.7,287.32c16.28-15.25,38-18.8,46.18-40.74,3.47-9.34,8.72-10,17.55-4.81C845,266.91,855,322.25,824.53,365.19c-4.84,6.82-10.35,13.14-16.45,20.83-.52-10.51-.31-19.48-1.53-28.24-2.71-19.52-13-32.86-31.25-40-39.83-15.53-80.9-19.69-123-15.74-1.55.14-3,.83-4.64,3.66,3.21,0,6.42,0,9.62,0A311.8,311.8,0,0,1,762.64,323c12.22,4.28,24,9.51,32.57,20.46-14.93,7.21-55.56,2-101.35-13.67h32.77c-31.26-15.63-64.17-17.34-96.8-20.3C629.7,307.43,629.58,305.35,629.45,303.28Zm114.34-38.91c22.23-12.72,22.23-12.72,22.1-19.23C753.06,244.35,745.48,250.94,743.79,264.37Z"/><path class="cls-2" d="M658.33,352.82c3.56-1.61,7.06-3.4,10.7-4.79,5.94-2.27,8.69-.21,7.17,6.38l27.89-10.22c-28.85,23.41-35,53.18-28.71,88.45-3.53-9.12-7.07-18.24-10.64-27.45-7.56,22.64-3.24,43,18.55,85.8-17.7-9.2-29.19-22.3-35.91-42.12C646.2,474,658,497.1,692.68,539.09c-43-16.57-70.71-45.23-79.32-92.16-4.28,15.31-2.32,25.87,13.87,76.33-28.86-10.58-49.05-45.66-52.08-92.13-8.17,23.3-5.9,45.07-1.91,67.21-7.4-7.51-11.29-16.55-12.94-27.09-1.52-9.72-4.43-19.22-5.87-29a83.44,83.44,0,0,1-.27-19.22c.71-8.1.17-17.54,4.06-23.83,6.16-10,15.55-17.8,24.93-25.09l-21.27,49.54,3.41,1.81c7.53-20.29,16.35-39.66,32.57-52.82l-15.83,44,3,1.56,4.73-4.12c2.42,18.42,4.83,36.69,7.23,55l2.47-.12c-1.11-22.19,2-43.5,9.54-61.5L637.25,477l1.32-.67V415.08l3.14-.18c.85,3.77,1.7,7.55,2.88,12.83,1.82-12.56,3.43-23.75,5-35l1.6.32v24.83c-.08-23.64,18.52-36.13,28.45-53.95l-14,16.48c-8.93-4.69-8.93-4.69,4-24-17.58,9.55-23.06,25.85-29.87,41.1l-3.2-1.47c3.47-9.7,6.75-19.47,10.48-29.06,1.57-4,4.09-7.71,6.18-11.55Z"/><path class="cls-2" d="M537.54,240.6c14.44-3,28.18.46,45.26,10.64-4.95-9.56-6.64-10.84-31.39-23.76,23.59-4.8,49.93,9.55,64,35l-4.64.91c-1.41,8.75,33.59,15.1,55.18,10.09-11.47,13.21-33.63,14.19-63.17,4.86l23.1,13.41c.07.54.15,1.08.23,1.62-6.82-.33-13.71-.18-20.45-1.1-7.11-1-14.09-2.95-21.81-2.32l30,11.1.1,1.83c-12.43-.86-25.18-.23-37.23-2.92-19-4.24-37.83-6.35-57-2.38-1.12.23-2.34-.07-5.26-.21,15-11.81,31.41-13.86,47.68-16.71-23.3-9.16-47-9.08-72-6.73,6.52-3.6,12.84-7.67,19.61-10.66s14.28-5.05,22.73-7.95l-12-1.2-.2-3,41.39-2ZM558,257.78l-1.18,3.52,33.63,16,1.41-3.18Z"/><path class="cls-2" d="M512.94,246.12,471,270.89c.09.29.17.58.25.87l11-3.73-33.58,31.7,58.95-14,1,3.13c-40.93,19.77-82.28,38.88-113.38,77.38C407.18,309.94,450.74,254.46,512.94,246.12Z"/><path class="cls-2" d="M777.71,628.7c20.6-13.83,23.12-38.12,25-62.42,14.17-3.93,14.74-3.3,16.1,10.86,2.75,28.66,4,57.14-2.9,85.54-1.79,7.38-4.89,9.06-11.49,8.73-6.41-.31-10.23-.72-12.27-9.16C789.41,651.12,783.15,640.91,777.71,628.7Z"/><path class="cls-2" d="M397.45,113.32c-6.52,9.54-10.84,18.5-17.43,25-19,18.87-65.78,33.11-92.33,29.38C299.34,141.54,362.69,108.7,397.45,113.32Z"/><path class="cls-2" d="M518.74,374.08l51.15-23.51,1.75,2.76c-20.21,15.86-40,32.14-47.82,58-11.73-2.17-12.55-3.87-7.05-12.82,1.42-2.31,3-4.5,4.6-6.68,1.39-1.9,2.9-3.7,3.26-6.81-3.87,3.68-8.53,6.8-11.44,11.16-5.74,8.61-12.34,10.14-20.92,5.22a34.73,34.73,0,0,0-5.47-2.07c4.1-24,49.8-66.45,74.89-71.5-14,14.1-29.4,29.64-44.81,45.17Z"/><path class="cls-2" d="M492.28,308.37c-11.89,18.73-23.9,37.79-36,56.76-4.51,7-8.7,14.73-20.53,14.39l10.13-22.82c-5.71,5.83-10.55,9.58-13.89,14.44-6,8.63-12.57,11.51-22.59,4.55C428.25,341.36,460.35,324.46,492.28,308.37Z"/><path class="cls-2" d="M590,349.35l22.08-14.91-.61-2-42.82,9.39c13.69-15.9,27.83-23.35,48.64-24.72l-9.19,5.61c24.67-1.51,49.23-4.74,75.28,3.61l-60.9,19.21L639.4,334l-.85-2.28-47.41,19.25Z"/><path class="cls-2" d="M466.29,392.36q7.89-13.92,15.8-27.83l-1-1.41-11.85,9-1.68-.83C472,361.17,476.17,351,481,341c3.5-7.26,3-17.07,12.18-20.87,3.4-1.42,6.7-3.11,11.24-2.88-1.78,2.29-4.44,4.33-5.17,6.94-1.94,7-3.05,14.2-4.52,21.44L525.54,334c.24.56.48,1.12.71,1.68-7.14,5.86-15.18,10.89-21.24,17.77-10.18,11.56-19,24.37-28.63,36.48-1.91,2.4-4.73,4-7.14,6Z"/><path class="cls-2" d="M598.84,313.19l-80,8.58C520,311,529,307.88,537.21,306.54c9.33-1.52,19.13-.75,28.65,0,11.14.88,22.21,2.81,33.31,4.28Z"/><path class="cls-2" d="M646.2,232.52l-10.36,4c4.53,4.48,7.75,10.14,12,11.15,4,1,9.09-3,13.73-4.77,2.13-.8,4.33-1.46,6.49-2.19.18,2.39,1.2,5.15.39,7.1-4.45,10.7-18.1,15.33-28.63,10.09-10.25-5.1-16.19-19.67-11.59-29.33,1-2.06,4.08-4.9,5.51-4.53,4.58,1.19,8.83,3.72,13.21,5.74C646.71,230.67,646.46,231.6,646.2,232.52Z"/><path class="cls-2" d="M658.33,352.82l-5.08,2.65c-10.43,7.71-21.61,14.55-31,23.39-7.81,7.32-13.53,17-19.77,25.1,2.37-28.11,24.59-50.42,57.83-56.55C659.52,349.52,658.92,351.17,658.33,352.82Z"/><path class="cls-2" d="M620.54,220.66c-4.12,15.45-5.18,28.58,7,38.2,12.49,9.85,25.9,10.7,40.57,1.64-10.64,14-33.16,14.92-46,3C609.7,252,608.19,232.82,620.54,220.66Z"/><path class="cls-2" d="M548.3,396.65,542,423.73C532.16,419.54,534.57,408.24,548.3,396.65Z"/><path class="cls-2" d="M628.17,394.6v37.56l-1.76,0V394.58Z"/></svg>