<svg id="Capa_1" data-name="Capa 1" xmlns="http://www.w3.org/2000/svg" viewBox="0 0 1000 1000"><defs><style>.cls-1{fill:#d9b56e;}.cls-2{fill:#3b1f2e;}</style></defs><title>Mesa de trabajo 2</title><rect class="cls-1" x="0.4" y="0.43" width="999.83" height="1002.89"/><path class="cls-2" d="M471.88,190.59c-11.47,9.29-22.28,18.25-33.39,26.82-1.48,1.14-4.56.59-6.85.33-24-2.76-48-6.82-72.08-8.12-26-1.41-52.19-.06-78.29-.37-7.51-.08-10.81,1.54-10.78,9.93q.36,87.12-.27,174.22c-.05,8,2.7,10.81,10.55,10.24,6.68-.49,13.43-.1,22.09-.1-2.79-25.87-5.42-50.28-8.34-77.39,19.19,22.7,40.65,39.15,66.27,48.27,37.57,13.39,76,24.5,114,36.79,17.61,5.7,35.73,10.46,52.42,18.18,25.24,11.68,32.93,27.88,29.1,55.28-2,14.23-4.8,28.36-7.56,44.39-7.2-5.38-12.68-9.74-18.43-13.71C477.62,478.93,419,456.1,356.61,443c-25-5.26-50.92-6.27-76.44-9.15-6.41-.73-9.89,1.27-9.8,8.69.69,57,.43,114,1.83,171,.82,33.53,13.2,46.79,46.54,48.92,45.3,2.89,90.75,3.42,135.76-4.81,17.89-3.27,33-10.94,44.35-25.52,1.69-2.18,6.8-3.89,9.25-3,15.34,5.7,30.37,12.2,46.83,19-2.77,10.14-4.88,20.51-8.73,30.22-1,2.6-7.32,4.45-11.21,4.46-82.6.18-165.2,0-247.8,0q-85.29,0-170.57.05c-1.89,0-3.79-.43-6-3.09,6.92-1.85,13.84-3.69,20.75-5.57,34.78-9.49,43.57-19.52,47.21-55.13a315.51,315.51,0,0,0,1.32-31.81q.16-161.48,0-323a194,194,0,0,0-2.18-29.6c-2.82-18.05-12.91-30.34-31.26-35.1-9.41-2.45-18.82-4.88-27.92-9Z"/><path class="cls-2" d="M526.7,379.14a158.26,158.26,0,0,1,49-51.54c-34.77,15.21-63.28,37.33-81.25,73l-14.87-4.26,47-59.76c-9.75,7.17-18.52,11.58-24.4,18.42-9.1,10.59-16.85,22.48-23.94,34.53-3.64,6.21-7,5.49-13.3,2.66,2.89-11.09,5.77-22.18,9.31-35.79-9.44,10.13-17,18.51-24.89,26.49-1.92,1.92-5.56,4-7.79,3.46-10.66-2.53-21.11-5.93-32.79-9.36,19.13-31.65,45.63-53.05,75.6-71-33.36,14.4-64.92,31.36-89.15,60.31,1.93-27.4,30.44-85.69,80.07-114.22-12.63-.32-33.91,10-68.12,33.19,2.39-12.93,19.8-38.65,45.62-60.2,19.37-16.16,41.65-28.9,61.78-42.59H481.29c27.54-16.29,57.3-23.57,88.91-28.47-3.89-1.51-7.72-3.19-11.69-4.49s-8.1-2.24-12.13-4.32c27.72-7.26,55.81-7.32,85.93-3.76l-6.17-7.59c.26-1,.53-1.92.8-2.88l64.34,15.85c-.26-.75-.95-2.68-2.26-6.36l43.84,20.93c-.4-3.62-.64-5.83-.89-8.13,1,0,1.84-.25,2.28,0,15.17,10,30.61,19.61,45.32,30.22,5.6,4.05,11.22,9.68,13.83,15.83,4.08,9.64,10.94,13.45,20.2,16.42,6.68,2.14,16.55,2.72,15.12,14.33-.14,1.1,2.79,2.93,4.6,3.87,63,32.62,53.79,102,21,140.5-5.5,6.45-11.63,12.38-17.46,18.56l-3.17-.41v-44c-24.4-1.64-46-2.78-67.54-4.6-41.82-3.53-72.08,24.95-69.83,66.52.53,9.78,2.41,19.48,4.07,32.38l-16.94-27.52c-7,31.46,8.24,56.35,21.83,82-15.17-6.61-26.31-17.3-35.11-30.85,5.54,30,18.66,55.84,41.06,77.1-41.44-14.23-68.46-41.9-80.5-84.1-2,27.08,4.6,51.72,17.39,75.14-35.83-18.82-54.35-49.11-60.56-87.95-6.34,20.69-3.71,40.68,1.11,60.84-7.81-9.17-15-18.17-15.9-31.17-.74-10.46-4.45-20.68-5.82-31.14-1.62-12.47-2.15-25.07-3.31-39.57l-9.2,22.87-24.22-15.15c9-13.69,16.49-27.94,26.77-39.87,6.86-8,17.64-12.6,25.64-21-9.49,3.58-19.25,6.61-28.4,10.91C545.41,367.61,537.24,373.06,526.7,379.14Zm75.83,35.57c3.46-11.7,6.93-23.39,10.33-34.85-11.68,8.86-16.12,21.7-16.75,36.23-.23,5.54,1.81,7.76,6.69,3-.11,6.84-3.1,16.6.3,19.88,5.77,5.56,4.77,11.17,6,17.14,2.24,10.82,5,21.53,7.33,31.15V414.13l-7.88,4.21c-.1-1.21-.21-2.42-.31-3.63Zm-.61-216.08c11.68-6.87,24.67-9.15,37.07-4.69,14.62,5.25,28.23,13.21,42.37,19.8,9.86,4.6,19.89,8.87,29.84,13.29l1.39-2.86-8.46-9.93,1.2-1.54,15.46,9.77c.53-.85,1.06-1.71,1.6-2.56-9.62-6.51-19.09-13.25-28.9-19.46-9.23-5.84-18.83-11.14-28.26-16.67,27.66,11.47,58.84,17.18,75.24,47.13l3.15-2c-1.93-8.13-3.87-16.26-6.52-27.4l15,20.36c1.3-14.5-7.37-22.71-13.5-31.88l2.9-1.71L761,215.79l2,.15q-1.72-13.32-3.47-26.64c2.22,0,3,2,4.07,3.73,3.1,5,6.32,10,10.12,16,.59-4,1-7.12,1.61-11,3.51,3.81,6.31,6.84,11,11.85-3-13.58-37.07-40.63-43.62-36.58.83,2.31,1.71,4.73,2.59,7.14C725.34,162.9,699,162.11,676.3,152.54c-6.19-2.61-13.2-3.32-19.83-4.9l-1.11,2.06q5.43,4.11,10.85,8.23c-26-4.61-50.53-12-79.84-7.21,15.44,5.17,27.88,10.11,40.75,13.39a195.17,195.17,0,0,0,30.33,5.3c12.73,1.18,24.6,11.46,36.83,17.8-7.78-.28-14.63-2.81-21.66-4.63-2-.53-4.63.95-7,1.5l-10.27-3.31c.93,2.81,1.41,4.28,2,6-26.67-6.88-57.53-3.16-75.12,9.66l20,2c-23.33,4.09-46.55,3.56-66.56-1l45.08-9.7.17-3.33L558,172.64l37.58,4.46-5.15,6.32,41.84-3.23,0-3-30.8-5.44c.12-.66.23-1.32.35-2h22.27c-28.93-12-57-3.89-85.46,2.87l20.61,9c-22,5.5-42.27,12.3-62.5,24.76l11.79,1.16-28.86,8.94c.13.74.26,1.49.4,2.23l6.84,1.56L463.72,232l.92,1.77,38-11.17c.27.93.55,1.86.82,2.79l-17.18,8c10.24,1.73,16.91-3.45,25.64,1.79,6.05,3.64,17.26-1.12,26.16-2.14-.06-.88-.12-1.77-.19-2.65l-18.51-1-.36-2.11,21.38-4c0-.77,0-1.53,0-2.29l-27.83-5.62,26.24-1.33-14.66-6.64.35-2.32h51.91l0,2.81-9.84,1.09c0,.81,0,1.61,0,2.42l33.65,2.35c.11-.93.23-1.85.35-2.78l-9.52-4.85.51-2.09h34.08c0-1.06.07-2.12.11-3.18Q613.82,199.81,601.92,198.63ZM558.65,252.9c-22.29,2.49-44.28,5.87-63.44,21.17,34.61-6.11,68.84-3.82,82.77,5.49-19.11,1.07-37.2,4.32-52.42,16.41,3.3.14,6.39-1.08,9.46-1,16.61.25,33.93-1.93,49.61,2.08,14.78,3.78,28.42,2.4,42.69,1.3l-28-10.2c.3-.86.6-1.71.89-2.56,7.28,1.43,14.51,3.21,21.85,4.19,7.17,1,14.45,1.11,21.68,1.61l-.23-2.06-25.27-15.65c33.63,12.85,59.83,11.09,73.76-6.32-28.57,11-56.54,6-72-13.35l11.5,5.88c-17.81-28.15-35.69-37.85-64.8-35.64,15.42,7.69,29.63,16,38.75,30.46-17.09-9.53-33.1-21.47-56-17.21L574.57,245c-.22,1.19-.43,2.39-.65,3.59H534.34l0,2.62,24,1.93Zm88.94,53.3c5.63,1.17,9.61,2.33,13.67,2.76,7.1.73,14.32.54,21.37,1.59,16.22,2.41,32.73,4.07,48.44,8.42,13.8,3.83,27.73,6.47,40.93,14.75,11.54,7.25,28.57,5.91,43.18,8.36.15-1,.29-2,.44-3l-10.24-3.72,7.5-2,.33-2.76c-24.43-7.39-48.46-16.88-73.41-21.58s-51-4.67-76.6-6.72c50.89-6.15,100.86-3,149.34,15.35l.88-3.25L788.9,300.88c33.3,3.08,53,20.19,55.39,55.12l3.9-1.95q-3.26-15.36-6.5-30.71l.95-.88,11.62,19.89c17.2-34,4.93-90.83-35.59-103.59-7.09,16.28-19.36,27.34-37,32.44,19.27-9.19,26.32-27.92,37-45.95-8.13-2.37-15.76-5.15-23.63-6.8-17.33-3.63-25.86.8-33.57,16.81-3.08,6.38-6,12.83-8.63,19.42-6.66,16.93-19.21,27.11-36.81,30.81-15.34,3.23-30.89,5.48-46.35,8.15C661.71,295,653.39,295.69,647.59,306.2ZM518.91,242.4c-35.16,8.13-54.21,33.64-76.54,54.72l8.7-4.78,1.71,2.06-20.89,18.49,1.48,1.68,27.75-17.15c-1.25,2.27-2.64,4.79-4.67,8.45l57.85-18.41c-.2-.83-.41-1.67-.61-2.5l-37.88,5.6C479.17,265.59,501.94,258.18,518.91,242.4Zm64.16,97.41,49.39-9.38.57,1.22-17.28,11.78.87,1.62,50.76-17.65.34,1.45-21.8,13.66.75.89,56.88-16.82c-27.25-11.24-54-3.33-83.56-1l15.21-7.83-1-2.64-36.62,11.31,5.42,2.72Zm57.38,76.68c-.73-6.6-1.12-10.05-1.88-16.89-4.15,4.61-7,6.88-8.65,9.81-3.63,6.48-2.77,12.29,1.48,19,4.78,7.56,7.19,16.6,10.62,25l1.37-.34c-.51-5-1-10.05-1.32-13,5.57,15.41,11.72,32.44,18.34,50.78-2.35-24.15-4.52-46.35-6.67-68.45L649,426c-1.35-6.78-2.49-12.48-3.81-19.08C643.73,409.93,642.71,412,640.45,416.49ZM529.12,320.05,617,312c-14.74-4.08-29.32-5.15-43.54-8C554.62,300.22,537.32,306.48,529.12,320.05Zm138.49-91.2.6-3.11c-3.85-2.21-7.49-5.37-11.63-6.28-2.62-.58-7.44,1.38-8.78,3.65-6,10.16-.4,24.46,11.18,30.36,10.76,5.49,24.84,2,29.93-7.88,1-2-.44-5.32-.76-8-2.28.66-4.57,1.27-6.83,2-5.05,1.59-10.63,5.33-15,4.23-4.09-1-6.86-7.15-11-12ZM481.12,364.66c.71.71,1.42,1.42,2.14,2.12,5.79-5.12,15.42-9.48,16.66-15.51a134.25,134.25,0,0,1,20.45-49.18C492.89,315.93,489.13,341.54,481.12,364.66ZM457,360.82l1.76,1,39.9-50.92c-11,6.6-22.43,11.37-31.06,19.21-11,10-19.61,22.39-29.25,33.77-1.06,1.25-2,2.59-3,3.89.38.44.77.87,1.16,1.3l23.92-19.62C458.69,355.18,457.84,358,457,360.82Zm234.2-104.24c-13.7,6.37-27.28,8.95-40.89.88-14.45-8.56-16-22.42-13.76-38.66-10,12.64-7.82,28.91,4.08,39.95C655,272.06,676.08,271.41,691.19,256.58ZM573.41,447l24-67.11-12.63,9.49C581.37,406.54,577.61,425.62,573.41,447Zm55.34-61.58L652.44,359C645.36,362.07,634.34,371,628.75,385.4ZM667,429.65l1.33.08q2-19.53,4.09-39.06l-2.69-.21Z"/><path class="cls-2" d="M387.79,463.19c32.23,8,61.72,17.33,88.94,32.74,19.86,11.24,39.09,23.79,59.69,33.49,28.33,13.33,57.47,25.07,86.66,36.5,32.54,12.75,66,23.35,98.16,36.89a297.87,297.87,0,0,1,55,30.55c50,35,49.59,80.28,9.6,122.65s-91,61.4-147.87,66.61c-65.18,6-128.34-4-189.37-27.25-16.39-6.25-16.39-6.42-16.43-23.62-.06-24.34,0-48.68,0-74.52,5.56,0,10.94-.71,16,.27,3.11.6,7.32,3.21,8.31,5.91,19,51.74,60.7,74.59,111.22,86.13a238.38,238.38,0,0,0,99,1.84c18.23-3.5,34.89-10.34,49.14-22.32,20.63-17.35,24-39.61,10.12-62.66C714.84,688,697,677.76,678.17,670.26c-36.76-14.65-74.28-27.39-111.45-41-44.3-16.26-87.81-33.9-126.08-62.37C406.14,541.19,394.36,504.82,387.79,463.19Z"/><path class="cls-2" d="M278.85,158.56c32-31.65,66.91-57.22,116.88-57.3-2,5.2-3,9.5-5.23,13.1-7.77,12.81-19,21.43-32.88,27.51C332.54,152.86,306.53,158.87,278.85,158.56Z"/><path class="cls-2" d="M812.93,640.73c20.82-15.54,26.43-39.34,28-64.51,13.69-3.37,13.6-3.23,15.3,10.21,3.67,29,4.86,57.78-2,86.54-1.71,7.19-4.06,10.93-12.49,10.85-7.85-.07-10.51-2.6-12.94-10C825.22,662.91,818.94,652.9,812.93,640.73Z"/><path class="cls-2" d="M516,405.51l17.38-18.32,2.74,2.73c-7.34,4.94-6.61,17.81-17.38,19.35C517.8,408,516.89,406.76,516,405.51Z"/><path class="cls-2" d="M771.61,262.75c.12-15.35,10.33-23.46,26.55-18.25Z"/><path class="cls-2" d="M558.34,253.17c19.69,1.71,37.08,8.6,51,23.75-3.68-1.32-7.29-2.9-11.05-3.91-7.23-1.93-15.09-2.42-21.67-5.57-6.82-3.27-12.45-9-18.57-13.67,0,0,.37-.55.59-.86Z"/><path class="cls-2" d="M719.85,189.17,673.2,170.22C693.84,165,707.12,176.44,719.85,189.17Z"/></svg>